<svg width="35" height="35" viewBox="0 0 35 35" fill="none" xmlns="http://www.w3.org/2000/svg">
<path d="M35 17.5C35 27.165 27.165 35 17.5 35C7.83502 35 0 27.165 0 17.5C0 7.83502 7.83502 0 17.5 0C27.165 0 35 7.83502 35 17.5ZM1.70178 17.5C1.70178 26.2251 8.77488 33.2982 17.5 33.2982C26.2251 33.2982 33.2982 26.2251 33.2982 17.5C33.2982 8.77488 26.2251 1.70178 17.5 1.70178C8.77488 1.70178 1.70178 8.77488 1.70178 17.5Z" fill="#FFAE00"/>
<circle cx="32.5" cy="17.5" r="0.5" fill="#FFAE00"/>
<circle cx="17.5" cy="17.5" r="0.5" fill="#FFAE00"/>
<circle cx="2.5" cy="17.5" r="0.5" fill="#FFAE00"/>
<circle cx="17.5" cy="32.5" r="0.5" fill="#FFAE00"/>
<circle cx="17.5" cy="2.5" r="0.5" fill="#FFAE00"/>
<path d="M17 18L26.6 5.7" stroke="#FFAE00"/>
<path d="M17.6 17.7L23.5 26.5" stroke="#FFAE00"/>
</svg>
